<svg width="28" height="25" viewBox="0 0 28 25" fill="none" xmlns="http://www.w3.org/2000/svg">
<path d="M27.9861 22.765L26.2036 7.765C26.1458 7.27627 25.9098 6.82602 25.5408 6.50039C25.1718 6.17475 24.6957 5.99659 24.2036 6H19.9998C19.9998 4.4087 19.3677 2.88258 18.2425 1.75736C17.1173 0.632141 15.5911 0 13.9998 0C12.4085 0 10.8824 0.632141 9.7572 1.75736C8.63198 2.88258 7.99984 4.4087 7.99984 6H3.79109C3.29897 5.99659 2.82287 6.17475 2.45388 6.50039C2.08488 6.82602 1.84891 7.27627 1.79109 7.765L0.00859374 22.765C-0.0240717 23.045 0.00280716 23.3287 0.0874676 23.5975C0.172128 23.8664 0.312658 24.1143 0.499844 24.325C0.688383 24.5366 0.919419 24.7061 1.17788 24.8224C1.43634 24.9387 1.71642 24.9992 1.99984 25H25.9898C26.275 25.0006 26.557 24.9408 26.8172 24.8245C27.0775 24.7081 27.3102 24.5379 27.4998 24.325C27.6861 24.1139 27.8258 23.8658 27.9096 23.5969C27.9933 23.3281 28.0194 23.0446 27.9861 22.765ZM13.9998 2C15.0607 2 16.0781 2.42143 16.8283 3.17157C17.5784 3.92172 17.9998 4.93913 17.9998 6H9.99984C9.99984 4.93913 10.4213 3.92172 11.1714 3.17157C11.9216 2.42143 12.939 2 13.9998 2ZM1.99984 23L3.79109 8H24.2186L25.9898 23H1.99984Z" fill="#270001"/>
</svg>
