<svg width="29" height="28" viewBox="0 0 29 28" fill="none" xmlns="http://www.w3.org/2000/svg">
<path d="M14.5 0.453125C11.8207 0.453125 9.20154 1.24764 6.97377 2.73618C4.74599 4.22473 3.00966 6.34047 1.98433 8.81584C0.958994 11.2912 0.690721 14.015 1.21343 16.6429C1.73614 19.2707 3.02635 21.6845 4.92092 23.5791C6.81548 25.4737 9.22931 26.7639 11.8571 27.2866C14.485 27.8093 17.2088 27.541 19.6842 26.5157C22.1595 25.4904 24.2753 23.754 25.7638 21.5262C27.2524 19.2985 28.0469 16.6793 28.0469 14C28.0427 10.4084 26.6141 6.96519 24.0744 4.42557C21.5348 1.88595 18.0916 0.457343 14.5 0.453125ZM14.5 25.9531C12.1359 25.9531 9.82489 25.2521 7.85921 23.9387C5.89352 22.6252 4.36146 20.7584 3.45676 18.5743C2.55205 16.3901 2.31534 13.9867 2.77656 11.6681C3.23777 9.34938 4.3762 7.21954 6.04787 5.54786C7.71954 3.87619 9.84939 2.73776 12.1681 2.27655C14.4867 1.81534 16.8901 2.05205 19.0743 2.95675C21.2584 3.86146 23.1252 5.39352 24.4387 7.3592C25.7521 9.32488 26.4531 11.6359 26.4531 14C26.4496 17.1691 25.1891 20.2074 22.9483 22.4483C20.7074 24.6891 17.6691 25.9496 14.5 25.9531ZM18.2506 13.4369C18.3999 13.5863 18.4837 13.7888 18.4837 14C18.4837 14.2112 18.3999 14.4137 18.2506 14.5631L12.9381 19.8756C12.7871 20.0164 12.5873 20.093 12.3808 20.0894C12.1744 20.0857 11.9774 20.0021 11.8314 19.8561C11.6854 19.7101 11.6018 19.5131 11.5981 19.3067C11.5945 19.1002 11.6711 18.9004 11.8119 18.7494L16.5599 14L11.8119 9.25062C11.6711 9.09956 11.5945 8.89977 11.5981 8.69332C11.6018 8.48688 11.6854 8.2899 11.8314 8.1439C11.9774 7.9979 12.1744 7.91427 12.3808 7.91063C12.5873 7.90698 12.7871 7.98362 12.9381 8.12438L18.2506 13.4369Z" fill="black"/>
</svg>
