<svg width="25" height="26" viewBox="0 0 25 26" fill="none" xmlns="http://www.w3.org/2000/svg">
<path d="M22.4278 21.8222L17.5382 16.9336C18.9554 15.2321 19.6621 13.0498 19.5113 10.8405C19.3604 8.63131 18.3637 6.56527 16.7284 5.07222C15.093 3.57917 12.9451 2.77405 10.7313 2.82437C8.51745 2.87468 6.40827 3.77654 4.84247 5.34234C3.27666 6.90815 2.3748 9.01733 2.32449 11.2311C2.27418 13.4449 3.07929 15.5929 4.57234 17.2282C6.06539 18.8636 8.13143 19.8603 10.3407 20.0111C12.5499 20.162 14.7322 19.4553 16.4337 18.0381L21.3224 22.9277C21.395 23.0003 21.4811 23.0579 21.576 23.0972C21.6708 23.1364 21.7725 23.1567 21.8751 23.1567C21.9778 23.1567 22.0794 23.1364 22.1742 23.0972C22.2691 23.0579 22.3553 23.0003 22.4278 22.9277C22.5004 22.8551 22.558 22.769 22.5973 22.6741C22.6366 22.5793 22.6568 22.4776 22.6568 22.375C22.6568 22.2723 22.6366 22.1707 22.5973 22.0758C22.558 21.981 22.5004 21.8948 22.4278 21.8222ZM3.90635 11.4375C3.90635 10.0468 4.31873 8.68741 5.09133 7.53113C5.86393 6.37484 6.96207 5.47363 8.24686 4.94145C9.53165 4.40927 10.9454 4.27003 12.3093 4.54133C13.6733 4.81263 14.9261 5.4823 15.9094 6.46563C16.8928 7.44897 17.5624 8.70182 17.8337 10.0658C18.1051 11.4297 17.9658 12.8434 17.4336 14.1282C16.9015 15.413 16.0002 16.5111 14.844 17.2838C13.6877 18.0564 12.3283 18.4687 10.9376 18.4687C9.07343 18.4667 7.28621 17.7252 5.96804 16.407C4.64987 15.0889 3.90842 13.3016 3.90635 11.4375Z" fill="#270001" fill-opacity="0.4"/>
</svg>
